<svg width="209" height="209" viewBox="0 0 209 209" fill="none" xmlns="http://www.w3.org/2000/svg">
<rect width="209" height="209" rx="15" fill="#4F5D75"/>
<path d="M185.72 98.5C185.72 130.809 159.529 157 127.22 157C94.9113 157 68.72 130.809 68.72 98.5C68.72 66.1913 94.9113 40 127.22 40C159.529 40 185.72 66.1913 185.72 98.5Z" fill="#B9F7D2"/>
<path d="M27 107.572H26.5V108.072V110.376V110.876H27H33.54V166.196H27H26.5V166.696V169V169.5H27H62.456H62.956V169V166.696V166.196H62.456H58.348V131.368C58.348 126.396 59.2748 122.17 61.106 118.674C63.0479 115.044 65.0951 113.436 67.192 113.436C67.9382 113.436 68.4848 113.656 68.8864 114.058C69.0852 114.256 69.297 114.618 69.4945 115.201C69.6893 115.775 69.8571 116.524 69.9933 117.456C70.2655 119.32 70.404 121.863 70.404 125.096V166.196H66.424H65.924V166.696V169V169.5H66.424H99.32H99.82V169V166.696V166.196H99.32H95.212V130.6C95.212 125.538 96.1404 121.405 97.9635 118.174C99.8042 114.911 101.847 113.436 104.056 113.436C104.802 113.436 105.349 113.656 105.75 114.058C105.949 114.256 106.161 114.618 106.358 115.201C106.553 115.775 106.721 116.524 106.857 117.456C107.13 119.32 107.268 121.863 107.268 125.096V166.196H103.288H102.788V166.696V169V169.5H103.288H138.744H139.244V169V166.696V166.196H138.744H132.076V128.168C132.076 120.98 130.496 115.496 127.247 111.806C123.988 108.103 119.127 106.292 112.76 106.292C107.9 106.292 103.832 107.465 100.592 109.845C97.7237 111.952 95.5395 114.98 94.0232 118.898C92.8999 114.993 91.0113 111.966 88.3335 109.855C85.2996 107.464 81.3082 106.292 76.408 106.292C71.5536 106.292 67.5097 107.398 64.3123 109.647C61.759 111.443 59.7744 113.948 58.348 117.14V108.072V107.572H57.848H27Z" fill="#EF8354" stroke="#EF8354"/>
<path d="M24 105.572H23.5V106.072V108.376V108.876H24H30.54V164.196H24H23.5V164.696V167V167.5H24H59.456H59.956V167V164.696V164.196H59.456H55.348V129.368C55.348 124.396 56.2748 120.17 58.106 116.674C60.0479 113.044 62.0951 111.436 64.192 111.436C64.9382 111.436 65.4848 111.656 65.8864 112.058C66.0852 112.256 66.297 112.618 66.4945 113.201C66.6893 113.775 66.8571 114.524 66.9933 115.456C67.2655 117.32 67.404 119.863 67.404 123.096V164.196H63.424H62.924V164.696V167V167.5H63.424H96.32H96.82V167V164.696V164.196H96.32H92.212V128.6C92.212 123.538 93.1404 119.405 94.9635 116.174C96.8042 112.911 98.8472 111.436 101.056 111.436C101.802 111.436 102.349 111.656 102.75 112.058C102.949 112.256 103.161 112.618 103.358 113.201C103.553 113.775 103.721 114.524 103.857 115.456C104.13 117.32 104.268 119.863 104.268 123.096V164.196H100.288H99.788V164.696V167V167.5H100.288H135.744H136.244V167V164.696V164.196H135.744H129.076V126.168C129.076 118.98 127.496 113.496 124.247 109.806C120.988 106.103 116.127 104.292 109.76 104.292C104.9 104.292 100.832 105.465 97.592 107.845C94.7237 109.952 92.5395 112.98 91.0232 116.898C89.8999 112.993 88.0113 109.966 85.3335 107.855C82.2996 105.464 78.3082 104.292 73.408 104.292C68.5536 104.292 64.5097 105.398 61.3123 107.647C58.759 109.443 56.7744 111.948 55.348 115.14V106.072V105.572H54.848H24Z" fill="white" stroke="white"/>
</svg>
