<svg width="498" height="237" viewBox="0 0 498 237" fill="none" xmlns="http://www.w3.org/2000/svg">
<path d="M497.11 76.3559C497.11 118.526 462.924 152.712 420.754 152.712C378.584 152.712 344.398 118.526 344.398 76.3559C344.398 34.1857 378.584 0 420.754 0C462.924 0 497.11 34.1857 497.11 76.3559Z" fill="#B9F7D2"/>
<path d="M4.91569 77.2176H45.1794V92.588C48.8549 81.2273 56.9299 75.5469 69.4044 75.5469C81.9903 75.5469 89.6198 81.5614 92.293 93.5904C96.1912 81.5614 104.378 75.5469 116.852 75.5469C133.225 75.5469 141.411 84.8471 141.411 103.448V153.735H150.767V156.743H104.489V153.735H110.336V99.4379C110.336 90.973 109.612 86.0166 108.165 84.5687C107.496 83.9004 106.605 83.5663 105.491 83.5663C102.261 83.5663 99.4212 85.7382 96.9709 90.082C94.5205 94.4258 93.2954 99.9391 93.2954 106.622V153.735H99.3099V156.743H56.373V153.735H62.2205V99.4379C62.2205 90.973 61.4965 86.0166 60.0486 84.5687C59.3803 83.9004 58.4893 83.5663 57.3755 83.5663C54.2568 83.5663 51.4167 85.9609 48.8549 90.7503C46.4046 95.4282 45.1794 101.053 45.1794 107.624V153.735H51.1939V156.743H4.91569V153.735H14.1045V80.2249H4.91569V77.2176Z" fill="#EF8354"/>
<path fill-rule="evenodd" clip-rule="evenodd" d="M3.91569 76.2176H46.1794V87.5219C47.9996 83.961 50.4073 81.1065 53.417 78.9893C57.6626 76.0027 63.0157 74.5469 69.4044 74.5469C75.855 74.5469 81.1477 76.0897 85.1851 79.2725C88.5277 81.9075 90.9335 85.6065 92.442 90.3043C94.4206 85.5826 97.1858 81.8811 100.764 79.2519C105.065 76.0921 110.451 74.5469 116.852 74.5469C125.228 74.5469 131.683 76.9317 136.022 81.8614C140.34 86.7666 142.411 94.0223 142.411 103.448V152.735H151.767V157.743H103.489V152.735H109.336V99.4379C109.336 95.2257 109.156 91.9253 108.804 89.5165C108.628 88.3117 108.413 87.3565 108.168 86.6336C107.917 85.8952 107.662 85.4807 107.457 85.2758C107.01 84.8283 106.391 84.5663 105.491 84.5663C102.793 84.5663 100.219 86.3594 97.8419 90.5733C95.5 94.7247 94.2954 100.055 94.2954 106.622V152.735H100.31V157.743H55.373V152.735H61.2205V99.4379C61.2205 95.2257 61.0399 91.9253 60.688 89.5165C60.512 88.3117 60.2969 87.3565 60.0518 86.6336C59.8013 85.8952 59.5463 85.4807 59.3415 85.2758L60.0486 84.5687C61.4965 86.0166 62.2205 90.973 62.2205 99.4379V153.735H56.373V156.743H99.3099V153.735H93.2954V106.622C93.2954 99.9391 94.5205 94.4258 96.9709 90.082C99.4212 85.7382 102.261 83.5663 105.491 83.5663C106.605 83.5663 107.496 83.9004 108.165 84.5687C109.612 86.0166 110.336 90.973 110.336 99.4379V153.735H104.489V156.743H150.767V153.735H141.411V103.448C141.411 84.8471 133.225 75.5469 116.852 75.5469C104.991 75.5469 97.0066 80.9846 92.899 91.8598C92.6866 92.4222 92.4846 92.999 92.293 93.5904C92.1578 92.9823 92.01 92.3896 91.8496 91.8123C88.8358 80.9687 81.3541 75.5469 69.4044 75.5469C57.9595 75.5469 50.2179 80.3283 46.1794 89.8911C45.8161 90.7514 45.4828 91.6504 45.1794 92.588V77.2176H4.91569V80.2249H14.1045V153.735H4.91569V156.743H51.1939V153.735H45.1794V107.624C45.1794 101.053 46.4046 95.4282 48.8549 90.7503C51.4167 85.9609 54.2568 83.5663 57.3755 83.5663C58.4893 83.5663 59.3803 83.9004 60.0486 84.5687L59.3415 85.2758C58.8939 84.8283 58.275 84.5663 57.3755 84.5663C54.8417 84.5663 52.2589 86.5081 49.7388 91.2181C47.3809 95.7213 46.1794 101.178 46.1794 107.624V152.735H52.1939V157.743H3.91569V152.735H13.1045V81.2249H3.91569V76.2176Z" fill="#EF8354"/>
<path d="M1 74.6073H41.2637V89.9777C44.9392 78.6169 53.0143 72.9366 65.4888 72.9366C78.0746 72.9366 85.7042 78.9511 88.3773 90.9801C92.2755 78.9511 100.462 72.9366 112.936 72.9366C129.309 72.9366 137.496 82.2368 137.496 100.837V151.125H146.852V154.132H100.573V151.125H106.421V96.8275C106.421 88.3627 105.697 83.4063 104.249 81.9583C103.581 81.29 102.69 80.9559 101.576 80.9559C98.3457 80.9559 95.5056 83.1278 93.0552 87.4716C90.6049 91.8154 89.3797 97.3287 89.3797 104.011V151.125H95.3942V154.132H52.4574V151.125H58.3048V96.8275C58.3048 88.3627 57.5808 83.4063 56.1329 81.9583C55.4646 81.29 54.5736 80.9559 53.4598 80.9559C50.3411 80.9559 47.501 83.3506 44.9392 88.1399C42.4889 92.8178 41.2637 98.4425 41.2637 105.014V151.125H47.2782V154.132H1V151.125H10.1888V77.6145H1V74.6073Z" fill="white"/>
<path fill-rule="evenodd" clip-rule="evenodd" d="M0 73.6073H42.2637V84.9115C44.0839 81.3506 46.4916 78.4961 49.5013 76.379C53.7469 73.3924 59.1 71.9366 65.4888 71.9366C71.9393 71.9366 77.232 73.4794 81.2694 76.6621C84.612 79.2972 87.0178 82.9961 88.5263 87.694C90.5049 82.9722 93.2701 79.2708 96.8487 76.6416C101.15 73.4818 106.536 71.9366 112.936 71.9366C121.312 71.9366 127.767 74.3214 132.106 79.251C136.424 84.1563 138.496 91.412 138.496 100.837V150.125H147.852V155.132H99.5733V150.125H105.421V96.8275C105.421 92.6153 105.24 89.315 104.888 86.9061C104.712 85.7013 104.497 84.7461 104.252 84.0233C104.002 83.2848 103.747 82.8703 103.542 82.6654C103.094 82.2179 102.475 81.9559 101.576 81.9559C98.8775 81.9559 96.3033 83.749 93.9262 87.9629C91.5844 92.1143 90.3797 97.4445 90.3797 104.011V150.125H96.3942V155.132H51.4574V150.125H57.3048V96.8275C57.3048 92.6153 57.1242 89.315 56.7723 86.9061C56.5963 85.7013 56.3812 84.7461 56.1361 84.0233C55.8856 83.2848 55.6306 82.8703 55.4258 82.6654L56.1329 81.9583C57.5808 83.4063 58.3048 88.3627 58.3048 96.8275V151.125H52.4574V154.132H95.3942V151.125H89.3797V104.011C89.3797 97.3287 90.6049 91.8154 93.0552 87.4716C95.5056 83.1278 98.3457 80.9559 101.576 80.9559C102.69 80.9559 103.581 81.29 104.249 81.9583C105.697 83.4063 106.421 88.3627 106.421 96.8275V151.125H100.573V154.132H146.852V151.125H137.496V100.837C137.496 82.2368 129.309 72.9366 112.936 72.9366C101.075 72.9366 93.0909 78.3742 88.9833 89.2495C88.771 89.8118 88.5689 90.3887 88.3773 90.9801C88.2421 90.372 88.0943 89.7793 87.9339 89.2019C84.9201 78.3584 77.4384 72.9366 65.4888 72.9366C54.0438 72.9366 46.3022 77.718 42.2637 87.2807C41.9004 88.141 41.5671 89.04 41.2637 89.9777V74.6073H1V77.6145H10.1888V151.125H1V154.132H47.2782V151.125H41.2637V105.014C41.2637 98.4425 42.4889 92.8178 44.9392 88.1399C47.501 83.3506 50.3411 80.9559 53.4598 80.9559C54.5736 80.9559 55.4646 81.29 56.1329 81.9583L55.4258 82.6654C54.9782 82.2179 54.3593 81.9559 53.4598 81.9559C50.926 81.9559 48.3432 83.8977 45.8231 88.6077C43.4652 93.1109 42.2637 98.5672 42.2637 105.014V150.125H48.2782V155.132H0V150.125H9.18881V78.6145H0V73.6073Z" fill="white"/>
<path d="M169.845 112.522C166.894 112.522 164.777 111.77 163.497 110.266C162.271 108.763 161.659 106.897 161.659 104.669C161.659 102.442 162.327 100.604 163.664 99.1561C165.056 97.7082 167.144 96.9842 169.929 96.9842C172.713 96.9842 174.829 97.6525 176.277 98.989C177.725 100.27 178.449 102.135 178.449 104.586C178.449 106.98 177.753 108.902 176.361 110.35C174.969 111.798 172.797 112.522 169.845 112.522ZM157.231 118.286H177.697V156.544H182.375V158.048H157.566V156.544H162.16V119.789H157.231V118.286Z" fill="#EF8354"/>
<path d="M217.575 113.942L219.914 112.522C220.249 110.795 219.58 109.932 217.91 109.932C215.515 109.932 214.318 111.77 214.318 115.445C214.318 116.893 214.513 118.564 214.902 120.457C219.135 123.298 221.251 126.945 221.251 131.4C221.251 135.8 219.72 139.225 216.657 141.675C213.594 144.126 209.445 145.351 204.21 145.351C202.038 145.351 199.783 145.128 197.444 144.682C194.993 146.242 193.768 147.411 193.768 148.191C193.768 148.971 195.55 149.36 199.114 149.36H207.635C220.276 149.36 226.597 153.899 226.597 162.977C226.597 167.877 224.676 171.748 220.833 174.588C217.046 177.484 211.115 178.932 203.04 178.932C189.285 178.932 182.407 175.952 182.407 169.993C182.407 166.763 184.551 164.536 188.84 163.311L193.852 165.566C193.406 167.181 193.183 168.713 193.183 170.161C193.183 174.95 196.747 177.345 203.876 177.345C208.22 177.345 211.561 176.537 213.9 174.922C216.239 173.307 217.408 171.302 217.408 168.908C217.408 166.513 216.684 164.898 215.236 164.063C213.844 163.283 211.032 162.893 206.799 162.893H198.697C194.186 162.893 190.956 162.141 189.007 160.638C187.057 159.134 186.083 157.296 186.083 155.124C186.083 152.897 186.779 151.059 188.171 149.611C189.564 148.107 192.042 146.27 195.606 144.098C189.146 142.26 185.916 138.028 185.916 131.4C185.916 127.224 187.419 123.854 190.427 121.293C193.434 118.731 197.945 117.45 203.959 117.45C207.579 117.45 210.67 118.146 213.232 119.539C212.898 118.035 212.73 116.671 212.73 115.445C212.73 112.327 213.566 110.071 215.236 108.679C216.907 107.287 218.773 106.591 220.833 106.591C222.894 106.591 224.537 107.148 225.762 108.261C227.043 109.319 227.683 110.795 227.683 112.689C227.683 114.582 227.182 116.002 226.18 116.949C225.177 117.84 223.952 118.286 222.504 118.286C221.112 118.286 219.942 117.924 218.996 117.2C218.105 116.42 217.631 115.334 217.575 113.942ZM199.866 129.563V134.074C199.866 137.805 200.172 140.339 200.785 141.675C201.453 143.012 202.428 143.68 203.709 143.68C205.045 143.68 205.992 143.04 206.549 141.759C207.161 140.422 207.468 137.721 207.468 133.656V129.563C207.468 125.219 207.189 122.379 206.632 121.042C206.076 119.65 205.129 118.954 203.792 118.954C202.511 118.954 201.537 119.678 200.869 121.126C200.2 122.518 199.866 125.33 199.866 129.563Z" fill="#EF8354"/>
<path d="M255.622 120.624C253.562 120.624 251.752 121.961 250.192 124.634C248.633 127.307 247.854 130.482 247.854 134.157V156.544H253.784V158.048H227.722V156.544H232.316V119.789H227.722V118.286H247.854V126.305C248.577 123.465 249.97 121.293 252.03 119.789C254.091 118.23 256.43 117.45 259.047 117.45C261.665 117.45 263.781 118.202 265.396 119.706C267.066 121.154 267.902 123.242 267.902 125.971C267.902 128.644 267.289 130.704 266.064 132.152C264.839 133.6 262.945 134.324 260.384 134.324C257.878 134.324 256.012 133.489 254.787 131.818C253.617 130.147 253.478 127.836 254.369 124.885H257.376C258.769 122.045 258.184 120.624 255.622 120.624Z" fill="#EF8354"/>
<path d="M287.906 138.417H290.328V131.985C290.328 126.695 290.022 123.158 289.409 121.376C288.853 119.539 287.739 118.62 286.068 118.62C285.066 118.62 284.147 118.898 283.311 119.455C282.532 119.956 282.142 120.68 282.142 121.627C282.142 122.518 282.309 123.437 282.643 124.384H284.731C285.177 125.553 285.4 126.973 285.4 128.644C285.4 130.259 284.704 131.679 283.311 132.904C281.919 134.074 280.165 134.658 278.049 134.658C273.259 134.658 270.865 132.347 270.865 127.725C270.865 120.875 276.684 117.45 288.323 117.45C294.951 117.45 299.517 118.592 302.023 120.875C304.585 123.103 305.866 127.224 305.866 133.238V150.196C305.866 153.092 306.673 154.54 308.288 154.54C310.182 154.54 311.295 151.672 311.63 145.936L312.883 146.019C312.66 150.92 311.741 154.289 310.126 156.127C308.511 157.964 305.866 158.883 302.19 158.883C295.507 158.883 291.665 156.823 290.662 152.702C289.938 154.818 288.852 156.377 287.405 157.38C285.957 158.382 283.84 158.883 281.056 158.883C272.814 158.883 268.693 155.514 268.693 148.776C268.693 144.822 270.252 142.121 273.371 140.673C276.545 139.169 281.39 138.417 287.906 138.417ZM284.564 148.692C284.564 151.588 284.704 153.454 284.982 154.289C285.316 155.124 285.901 155.542 286.736 155.542C287.627 155.542 288.435 154.846 289.159 153.454C289.938 152.006 290.328 150.029 290.328 147.523V139.754H289.744C286.291 139.754 284.564 142.288 284.564 147.356V148.692Z" fill="#EF8354"/>
<path d="M325.983 112.522C323.032 112.522 320.915 111.77 319.635 110.266C318.409 108.763 317.797 106.897 317.797 104.669C317.797 102.442 318.465 100.604 319.802 99.1561C321.194 97.7082 323.282 96.9842 326.067 96.9842C328.851 96.9842 330.967 97.6525 332.415 98.989C333.863 100.27 334.587 102.135 334.587 104.586C334.587 106.98 333.891 108.902 332.499 110.35C331.107 111.798 328.935 112.522 325.983 112.522ZM313.369 118.286H333.835V156.544H338.513V158.048H313.704V156.544H318.298V119.789H313.369V118.286Z" fill="#EF8354"/>
<path d="M340.383 118.286H360.515V125.971C361.406 123.409 362.77 121.348 364.608 119.789C366.446 118.23 369.23 117.45 372.962 117.45C381.594 117.45 385.91 122.1 385.91 131.4V156.544H390.587V158.048H366.947V156.544H370.372V129.396C370.372 126.054 370.149 123.91 369.704 122.963C369.258 121.961 368.451 121.46 367.281 121.46C365.499 121.46 363.912 122.629 362.52 124.968C361.183 127.307 360.515 130.147 360.515 133.489V156.544H364.107V158.048H340.383V156.544H344.978V119.789H340.383V118.286Z" fill="#EF8354"/>
<path d="M413.661 158.883C406.477 158.883 401.075 157.046 397.455 153.37C393.891 149.639 392.109 144.488 392.109 137.916C392.109 131.289 394.114 126.221 398.123 122.713C402.189 119.204 407.34 117.45 413.577 117.45C426.219 117.45 432.289 123.799 431.788 136.496H408.231V139.754C408.231 145.212 408.927 149.333 410.319 152.117C411.712 154.902 414.134 156.294 417.587 156.294C424.047 156.294 428.279 152.841 430.284 145.936L431.788 146.186C430.73 150.196 428.808 153.314 426.024 155.542C423.295 157.77 419.174 158.883 413.661 158.883ZM408.314 134.825H416.919V130.732C416.919 126.221 416.64 123.158 416.083 121.543C415.582 119.873 414.524 119.037 412.909 119.037C411.35 119.037 410.18 119.928 409.4 121.71C408.676 123.437 408.314 126.444 408.314 130.732V134.825Z" fill="#EF8354"/>
<path fill-rule="evenodd" clip-rule="evenodd" d="M162.494 111.102L162.485 111.091C161.042 109.32 160.354 107.15 160.354 104.669C160.354 102.16 161.116 99.9916 162.705 98.2707L162.714 98.261L162.723 98.2514C164.444 96.4614 166.93 95.6789 169.929 95.6789C172.9 95.6789 175.38 96.3907 177.153 98.0205C178.945 99.6118 179.755 101.874 179.755 104.586C179.755 107.249 178.972 109.518 177.302 111.254C175.568 113.058 172.985 113.827 169.845 113.827C166.703 113.827 164.134 113.027 162.503 111.113L162.494 111.102ZM176.277 98.989C174.829 97.6525 172.713 96.9842 169.929 96.9842C167.144 96.9842 165.056 97.7082 163.664 99.1561C162.327 100.604 161.659 102.442 161.659 104.669C161.659 106.897 162.271 108.763 163.497 110.266C164.777 111.77 166.894 112.522 169.845 112.522C172.797 112.522 174.969 111.798 176.361 110.35C177.753 108.902 178.449 106.98 178.449 104.586C178.449 102.135 177.725 100.27 176.277 98.989ZM155.926 116.98H179.003V155.239H183.681V159.353H156.26V155.239H160.855V121.094H155.926V116.98ZM162.16 119.789V156.544H157.566V158.048H182.375V156.544H177.697V118.286H157.231V119.789H162.16ZM216.241 113.225L218.693 111.736C218.693 111.666 218.689 111.606 218.683 111.556C218.673 111.485 218.66 111.44 218.65 111.415C218.641 111.39 218.634 111.381 218.632 111.378C218.63 111.376 218.626 111.371 218.614 111.363C218.602 111.354 218.574 111.337 218.523 111.318C218.415 111.279 218.222 111.237 217.91 111.237C217.105 111.237 216.642 111.512 216.309 112.023C215.913 112.63 215.623 113.708 215.623 115.445C215.623 116.655 215.771 118.066 216.079 119.684C220.321 122.687 222.556 126.609 222.556 131.4C222.556 136.142 220.885 139.964 217.472 142.694C214.11 145.384 209.642 146.656 204.21 146.656C202.111 146.656 199.946 146.456 197.717 146.06C196.746 146.699 196.046 147.236 195.588 147.673C195.539 147.72 195.494 147.765 195.452 147.807C196.207 147.963 197.408 148.055 199.114 148.055H207.635C214.073 148.055 219.136 149.204 222.618 151.704C224.281 152.899 225.543 154.372 226.416 156.099V155.239H231.011V121.094H226.416V118.421C225.284 119.207 223.964 119.591 222.504 119.591C220.875 119.591 219.414 119.163 218.203 118.236L218.168 118.21L218.136 118.182C216.928 117.125 216.339 115.675 216.271 113.994L216.241 113.225ZM227.854 116.98H249.159V120.717C249.767 119.977 250.464 119.317 251.252 118.741C253.54 117.013 256.153 116.145 259.047 116.145C261.921 116.145 264.37 116.976 266.268 118.734C268.278 120.486 269.207 122.968 269.207 125.971C269.207 128.828 268.553 131.231 267.06 132.995C265.508 134.83 263.187 135.629 260.384 135.629C257.56 135.629 255.258 134.668 253.734 132.59L253.726 132.578L253.718 132.567C252.221 130.428 252.174 127.641 253.12 124.507L253.4 123.579H256.527C256.648 123.266 256.725 123 256.768 122.778C256.84 122.396 256.793 122.23 256.775 122.186C256.772 122.178 256.766 122.139 256.636 122.08C256.473 122.007 256.159 121.93 255.622 121.93C254.233 121.93 252.773 122.801 251.32 125.292C249.897 127.731 249.159 130.669 249.159 134.157V155.239H255.09V159.353H227.544C227.784 160.486 227.902 161.695 227.902 162.977C227.902 168.275 225.798 172.538 221.618 175.631C217.493 178.781 211.217 180.237 203.04 180.237C196.109 180.237 190.734 179.492 187.047 177.895C185.189 177.09 183.694 176.041 182.663 174.7C181.617 173.341 181.102 171.754 181.102 169.993C181.102 168.058 181.758 166.364 183.075 164.995C184.362 163.658 186.208 162.705 188.481 162.056L188.67 162.002C188.511 161.896 188.358 161.785 188.209 161.671C185.989 159.958 184.778 157.758 184.778 155.124C184.778 152.604 185.575 150.432 187.222 148.715C188.4 147.446 190.226 146.014 192.65 144.421C190.437 143.44 188.637 142.088 187.301 140.337C185.473 137.942 184.611 134.929 184.611 131.4C184.611 126.866 186.263 123.125 189.58 120.299C192.92 117.454 197.79 116.145 203.959 116.145C206.747 116.145 209.28 116.54 211.538 117.354C211.463 116.694 211.425 116.057 211.425 115.445C211.425 112.113 212.321 109.41 214.401 107.676C216.292 106.1 218.45 105.285 220.833 105.285C223.124 105.285 225.1 105.907 226.617 107.275C228.226 108.616 228.988 110.478 228.988 112.689C228.988 114.338 228.646 115.808 227.854 116.98ZM225.762 108.261C224.537 107.148 222.894 106.591 220.833 106.591C218.773 106.591 216.907 107.287 215.236 108.679C213.566 110.071 212.73 112.327 212.73 115.445C212.73 116.217 212.797 117.044 212.929 117.926C213.007 118.445 213.108 118.982 213.232 119.539C212.759 119.281 212.267 119.048 211.758 118.838C209.51 117.913 206.911 117.45 203.959 117.45C197.945 117.45 193.434 118.731 190.427 121.293C187.419 123.854 185.916 127.224 185.916 131.4C185.916 137.45 188.607 141.503 193.989 143.562C194.504 143.759 195.042 143.937 195.606 144.098C195.097 144.408 194.61 144.711 194.146 145.007C191.356 146.787 189.365 148.322 188.171 149.611C186.779 151.059 186.083 152.897 186.083 155.124C186.083 157.296 187.057 159.134 189.007 160.638C190.956 162.141 194.186 162.893 198.697 162.893H206.799C211.032 162.893 213.844 163.283 215.236 164.063C216.684 164.898 217.408 166.513 217.408 168.908C217.408 171.302 216.239 173.307 213.9 174.922C211.561 176.537 208.22 177.345 203.876 177.345C196.747 177.345 193.183 174.95 193.183 170.161C193.183 168.713 193.406 167.181 193.852 165.566L188.84 163.311C184.551 164.536 182.407 166.763 182.407 169.993C182.407 175.952 189.285 178.932 203.04 178.932C211.115 178.932 217.046 177.484 220.833 174.588C224.676 171.748 226.597 167.877 226.597 162.977C226.597 153.899 220.276 149.36 207.635 149.36H199.114C195.55 149.36 193.768 148.971 193.768 148.191C193.768 147.411 194.993 146.242 197.444 144.682C199.783 145.128 202.038 145.351 204.21 145.351C209.445 145.351 213.594 144.126 216.657 141.675C219.72 139.225 221.251 135.8 221.251 131.4C221.251 126.945 219.135 123.298 214.902 120.457C214.513 118.564 214.318 116.893 214.318 115.445C214.318 111.77 215.515 109.932 217.91 109.932C219.58 109.932 220.249 110.795 219.914 112.522L217.575 113.942C217.631 115.334 218.105 116.42 218.996 117.2C219.942 117.924 221.112 118.286 222.504 118.286C223.952 118.286 225.177 117.84 226.18 116.949C227.182 116.002 227.683 114.582 227.683 112.689C227.683 110.795 227.043 109.319 225.762 108.261ZM206.549 141.759C205.992 143.04 205.045 143.68 203.709 143.68C202.428 143.68 201.453 143.012 200.785 141.675C200.172 140.339 199.866 137.805 199.866 134.074V129.563C199.866 125.33 200.2 122.518 200.869 121.126C201.537 119.678 202.511 118.954 203.792 118.954C205.129 118.954 206.076 119.65 206.632 121.042C207.189 122.379 207.468 125.219 207.468 129.563V133.656C207.468 137.721 207.161 140.422 206.549 141.759ZM201.963 141.112C202.221 141.621 202.496 141.925 202.755 142.102C203.007 142.275 203.309 142.375 203.709 142.375C204.162 142.375 204.467 142.269 204.69 142.119C204.916 141.965 205.15 141.702 205.352 141.238L205.357 141.227L205.362 141.215C205.581 140.737 205.793 139.892 205.941 138.584C206.087 137.299 206.163 135.661 206.163 133.656V129.563C206.163 127.414 206.093 125.664 205.96 124.302C205.824 122.911 205.629 122.027 205.428 121.544L205.424 121.536L205.421 121.527C205.208 120.995 204.961 120.696 204.732 120.527C204.512 120.366 204.222 120.259 203.792 120.259C203.416 120.259 203.128 120.359 202.879 120.545C202.614 120.742 202.324 121.087 202.054 121.673L202.049 121.682L202.045 121.69C201.805 122.191 201.575 123.071 201.413 124.433C201.254 125.77 201.171 127.475 201.171 129.563V134.074C201.171 135.908 201.247 137.418 201.392 138.616C201.537 139.816 201.743 140.622 201.963 141.112ZM214.592 165.197C214.106 164.928 213.248 164.665 211.904 164.478C210.578 164.294 208.882 164.198 206.799 164.198H198.697C196.463 164.198 194.464 164.02 192.735 163.632L195.407 164.835L195.11 165.913C194.691 167.432 194.489 168.847 194.489 170.161C194.489 172.179 195.209 173.541 196.584 174.465C198.051 175.451 200.417 176.039 203.876 176.039C208.085 176.039 211.125 175.252 213.158 173.848C215.22 172.424 216.103 170.789 216.103 168.907C216.103 166.762 215.47 165.708 214.592 165.197ZM247.854 156.544V134.157C247.854 130.482 248.633 127.307 250.192 124.634C251.752 121.961 253.562 120.624 255.622 120.624C258.184 120.624 258.769 122.045 257.376 124.885H254.369C253.478 127.836 253.617 130.147 254.787 131.818C256.012 133.489 257.878 134.324 260.384 134.324C262.945 134.324 264.839 133.6 266.064 132.152C267.289 130.704 267.902 128.644 267.902 125.971C267.902 123.242 267.066 121.154 265.396 119.706C263.781 118.202 261.665 117.45 259.047 117.45C256.43 117.45 254.091 118.23 252.03 119.789C250.856 120.646 249.899 121.72 249.159 123.011C248.6 123.985 248.165 125.083 247.854 126.305V118.286H227.722V119.789H232.316V156.544H227.722V158.048H253.784V156.544H247.854ZM195.057 148.312L195.058 148.309L195.057 148.312ZM289.159 153.454C289.341 153.115 289.502 152.748 289.641 152.352C289.874 151.693 290.047 150.953 290.162 150.132C290.273 149.338 290.328 148.468 290.328 147.523V139.754H289.744C289.494 139.754 289.254 139.767 289.023 139.793C286.051 140.133 284.564 142.654 284.564 147.356V148.692C284.564 151.588 284.704 153.454 284.982 154.289C285.316 155.124 285.901 155.542 286.736 155.542C287.179 155.542 287.601 155.37 288.002 155.027C288.409 154.678 288.794 154.154 289.159 153.454ZM288.956 155.925C288.496 156.497 287.979 156.982 287.405 157.38C285.957 158.382 283.84 158.883 281.056 158.883C272.814 158.883 268.693 155.514 268.693 148.776C268.693 144.822 270.252 142.121 273.371 140.673C276.545 139.169 281.39 138.417 287.906 138.417H290.328V131.985C290.328 126.695 290.022 123.158 289.409 121.376C288.982 119.965 288.225 119.095 287.141 118.768C286.813 118.669 286.455 118.62 286.068 118.62C285.48 118.62 284.92 118.716 284.389 118.907C284.016 119.042 283.656 119.225 283.311 119.455C282.532 119.956 282.142 120.68 282.142 121.627C282.142 122.518 282.309 123.437 282.643 124.384H284.731C285.177 125.553 285.4 126.973 285.4 128.644C285.4 130.259 284.704 131.679 283.311 132.904C281.919 134.074 280.165 134.658 278.049 134.658C273.259 134.658 270.865 132.347 270.865 127.725C270.865 121.757 275.283 118.389 284.118 117.62C284.746 117.566 285.396 117.524 286.068 117.496C286.471 117.479 286.883 117.467 287.302 117.459C287.637 117.453 287.978 117.45 288.323 117.45C294.951 117.45 299.517 118.592 302.023 120.875C304.585 123.103 305.866 127.224 305.866 133.238V150.196C305.866 153.092 306.673 154.54 308.288 154.54C309.598 154.54 310.535 153.166 311.099 150.42C311.309 149.394 311.468 148.178 311.574 146.77C311.594 146.507 311.612 146.238 311.628 145.962C311.629 145.953 311.629 145.944 311.63 145.936L312.883 146.019C312.804 147.756 312.637 149.3 312.384 150.652C311.921 153.115 311.169 154.94 310.126 156.127C308.511 157.964 305.866 158.883 302.19 158.883C296.561 158.883 292.947 157.421 291.348 154.497C291.108 154.058 290.913 153.585 290.764 153.079C290.727 152.955 290.694 152.83 290.662 152.702C290.509 153.15 290.34 153.573 290.154 153.971C290.152 153.976 290.149 153.981 290.147 153.986C290.066 154.16 289.981 154.329 289.893 154.494C289.613 155.02 289.3 155.497 288.956 155.925ZM290.631 155.819C289.959 156.883 289.136 157.769 288.148 158.453C286.388 159.671 283.964 160.189 281.056 160.189C276.79 160.189 273.349 159.322 270.957 157.367C268.516 155.371 267.388 152.423 267.388 148.776C267.388 146.63 267.811 144.727 268.732 143.132C269.659 141.526 271.042 140.316 272.817 139.491C276.258 137.862 281.338 137.112 287.906 137.112H289.023V131.985C289.023 126.666 288.706 123.345 288.175 121.801L288.167 121.778L288.16 121.755C287.932 121.002 287.629 120.565 287.326 120.316C287.039 120.079 286.65 119.925 286.068 119.925C285.324 119.925 284.657 120.127 284.035 120.541L284.026 120.547L284.017 120.553C283.621 120.808 283.447 121.113 283.447 121.627C283.447 122.091 283.503 122.574 283.619 123.078H285.631L285.951 123.919C286.469 125.277 286.705 126.864 286.705 128.644C286.705 130.691 285.801 132.452 284.174 133.884L284.162 133.894L284.151 133.903C282.486 135.302 280.419 135.964 278.049 135.964C275.464 135.964 273.284 135.34 271.754 133.864C270.216 132.379 269.559 130.249 269.559 127.725C269.559 123.846 271.252 120.845 274.567 118.894C277.775 117.006 282.419 116.145 288.323 116.145C294.998 116.145 299.999 117.274 302.891 119.9C305.886 122.513 307.171 127.128 307.171 133.238V150.196C307.171 151.565 307.369 152.384 307.611 152.818C307.721 153.015 307.824 153.103 307.898 153.148C307.971 153.191 308.086 153.234 308.288 153.234C308.397 153.234 308.828 153.202 309.327 151.916C309.809 150.675 310.162 148.688 310.327 145.86L310.403 144.546L314.245 144.802L314.187 146.078C313.962 151.025 313.036 154.793 311.106 156.988C309.141 159.225 306.051 160.189 302.19 160.189C298.738 160.189 295.865 159.66 293.679 158.488C292.404 157.805 291.383 156.911 290.631 155.819ZM286.209 153.84C286.301 154.057 286.389 154.137 286.43 154.167C286.466 154.193 286.545 154.237 286.736 154.237C286.85 154.237 287.325 154.151 288.001 152.851L288.005 152.843L288.01 152.835C288.647 151.651 289.023 149.916 289.023 147.523V141.109C288.069 141.251 287.413 141.692 286.938 142.389C286.29 143.34 285.87 144.929 285.87 147.356V148.692C285.87 150.123 285.904 151.278 285.97 152.166C286.036 153.043 286.127 153.573 286.209 153.84ZM318.632 111.102L318.623 111.091C317.18 109.32 316.492 107.15 316.492 104.669C316.492 102.16 317.254 99.9916 318.843 98.2707L318.852 98.261L318.861 98.2514C320.582 96.4614 323.068 95.6789 326.067 95.6789C329.038 95.6789 331.518 96.3906 333.29 98.0204C335.083 99.6117 335.893 101.874 335.893 104.586C335.893 107.249 335.11 109.518 333.44 111.254C331.706 113.058 329.123 113.827 325.983 113.827C322.841 113.827 320.272 113.027 318.641 111.113L318.632 111.102ZM312.064 116.98H335.141V155.239H343.672V121.094H339.078V116.98H361.82V120.812C362.401 120.074 363.048 119.401 363.764 118.794C365.937 116.95 369.083 116.145 372.962 116.145C377.505 116.145 381.145 117.373 383.629 120.05C386.096 122.708 387.215 126.572 387.215 131.4V155.239H391.893V159.353H365.642V155.239H369.067V129.396C369.067 127.748 369.012 126.426 368.907 125.416C368.798 124.369 368.647 123.782 368.523 123.519L368.517 123.506L368.511 123.494C368.378 123.194 368.224 123.037 368.076 122.945C367.922 122.849 367.679 122.765 367.281 122.765C366.172 122.765 364.935 123.466 363.647 125.626C362.451 127.724 361.82 130.326 361.82 133.489V155.239H365.412V159.353H312.398V155.239H316.993V121.094H312.064V116.98ZM318.298 119.789V156.544H313.704V158.048H338.513V156.544H333.835V118.286H313.369V119.789H318.298ZM360.515 156.544V133.489C360.515 130.147 361.183 127.307 362.52 124.968C363.912 122.629 365.499 121.46 367.281 121.46C368.451 121.46 369.258 121.961 369.704 122.963C370.149 123.91 370.372 126.054 370.372 129.396V156.544H366.947V158.048H390.587V156.544H385.91V131.4C385.91 122.1 381.594 117.45 372.962 117.45C369.23 117.45 366.446 118.23 364.608 119.789C363.51 120.721 362.58 121.832 361.82 123.122C361.309 123.991 360.873 124.94 360.515 125.971V118.286H340.383V119.789H344.978V156.544H340.383V158.048H364.107V156.544H360.515ZM396.518 154.279L396.511 154.272C392.656 150.236 390.803 144.728 390.803 137.916C390.803 131.012 392.904 125.545 397.264 121.731L397.27 121.725C401.61 117.979 407.08 116.145 413.577 116.145C420.096 116.145 425.182 117.782 428.554 121.31C431.926 124.836 433.35 130.004 433.092 136.548L433.042 137.801H409.536V139.754C409.536 145.14 410.23 149.019 411.487 151.533C412.082 152.723 412.867 153.564 413.831 154.118C414.802 154.676 416.035 154.989 417.587 154.989C420.573 154.989 422.939 154.196 424.781 152.693C426.636 151.179 428.079 148.85 429.031 145.572L429.354 144.457L433.415 145.134L433.05 146.519C431.933 150.751 429.879 154.127 426.845 156.557C423.783 159.053 419.311 160.189 413.661 160.189C406.267 160.189 400.473 158.295 396.525 154.286L396.518 154.279ZM426.024 155.542C428.509 153.554 430.307 150.856 431.417 147.447C431.55 147.037 431.674 146.617 431.788 146.186L430.284 145.936C428.279 152.841 424.047 156.294 417.587 156.294C414.134 156.294 411.712 154.902 410.319 152.117C408.927 149.333 408.231 145.212 408.231 139.754V136.496H431.788C432.289 123.799 426.219 117.45 413.577 117.45C407.34 117.45 402.189 119.204 398.123 122.713C394.114 126.221 392.109 131.289 392.109 137.916C392.109 144.488 393.891 149.639 397.455 153.37C401.075 157.046 406.477 158.883 413.661 158.883C419.174 158.883 423.295 157.77 426.024 155.542ZM416.083 121.543C416.64 123.158 416.919 126.221 416.919 130.732V134.825H408.314V130.732C408.314 126.444 408.676 123.437 409.4 121.71C410.18 119.928 411.35 119.037 412.909 119.037C414.524 119.037 415.582 119.873 416.083 121.543ZM410.6 122.225C409.989 123.69 409.62 126.46 409.62 130.732V133.52H415.613V130.732C415.613 126.203 415.325 123.35 414.849 121.969L414.841 121.944L414.833 121.918C414.637 121.265 414.37 120.897 414.105 120.688C413.849 120.487 413.483 120.343 412.909 120.343C412.396 120.343 411.996 120.482 411.653 120.744C411.294 121.017 410.928 121.479 410.6 122.225ZM319.635 110.266C320.915 111.77 323.032 112.522 325.983 112.522C328.935 112.522 331.107 111.798 332.499 110.35C333.891 108.902 334.587 106.98 334.587 104.586C334.587 102.135 333.863 100.27 332.415 98.989C330.967 97.6525 328.851 96.9842 326.067 96.9842C323.282 96.9842 321.194 97.7082 319.802 99.1561C318.465 100.604 317.797 102.442 317.797 104.669C317.797 106.897 318.409 108.763 319.635 110.266Z" fill="#EF8354"/>
<path d="M168.54 109.911C165.588 109.911 163.472 109.159 162.191 107.656C160.966 106.152 160.353 104.286 160.353 102.059C160.353 99.8312 161.022 97.9935 162.358 96.5455C163.751 95.0976 165.839 94.3736 168.623 94.3736C171.408 94.3736 173.524 95.0419 174.972 96.3785C176.42 97.6593 177.144 99.5249 177.144 101.975C177.144 104.37 176.448 106.291 175.056 107.739C173.663 109.187 171.491 109.911 168.54 109.911ZM155.926 115.675H176.392V153.934H181.07V155.437H156.26V153.934H160.855V117.179H155.926V115.675Z" fill="white"/>
<path d="M216.27 111.331L218.609 109.911C218.943 108.185 218.275 107.322 216.604 107.322C214.21 107.322 213.012 109.159 213.012 112.835C213.012 114.283 213.207 115.953 213.597 117.847C217.829 120.687 219.946 124.335 219.946 128.79C219.946 133.189 218.414 136.614 215.351 139.065C212.288 141.515 208.139 142.74 202.905 142.74C200.733 142.74 198.477 142.517 196.138 142.072C193.688 143.631 192.463 144.801 192.463 145.58C192.463 146.36 194.245 146.75 197.809 146.75H206.33C218.971 146.75 225.292 151.289 225.292 160.366C225.292 165.267 223.371 169.137 219.528 171.977C215.741 174.873 209.81 176.321 201.735 176.321C187.98 176.321 181.102 173.342 181.102 167.383C181.102 164.153 183.246 161.925 187.534 160.7L192.546 162.956C192.101 164.571 191.878 166.102 191.878 167.55C191.878 172.339 195.442 174.734 202.57 174.734C206.914 174.734 210.256 173.926 212.595 172.311C214.934 170.696 216.103 168.692 216.103 166.297C216.103 163.902 215.379 162.287 213.931 161.452C212.539 160.672 209.727 160.282 205.494 160.282H197.391C192.88 160.282 189.65 159.531 187.701 158.027C185.752 156.523 184.778 154.686 184.778 152.514C184.778 150.286 185.474 148.448 186.866 147C188.258 145.497 190.736 143.659 194.301 141.487C187.841 139.649 184.611 135.417 184.611 128.79C184.611 124.613 186.114 121.244 189.121 118.682C192.129 116.12 196.639 114.84 202.654 114.84C206.274 114.84 209.365 115.536 211.926 116.928C211.592 115.424 211.425 114.06 211.425 112.835C211.425 109.716 212.26 107.461 213.931 106.068C215.602 104.676 217.467 103.98 219.528 103.98C221.589 103.98 223.231 104.537 224.457 105.651C225.737 106.709 226.378 108.185 226.378 110.078C226.378 111.972 225.877 113.392 224.874 114.338C223.872 115.229 222.647 115.675 221.199 115.675C219.806 115.675 218.637 115.313 217.69 114.589C216.799 113.809 216.326 112.723 216.27 111.331ZM198.561 126.952V131.463C198.561 135.194 198.867 137.728 199.48 139.065C200.148 140.401 201.123 141.07 202.403 141.07C203.74 141.07 204.687 140.429 205.244 139.148C205.856 137.812 206.162 135.111 206.162 131.045V126.952C206.162 122.608 205.884 119.768 205.327 118.432C204.77 117.039 203.823 116.343 202.487 116.343C201.206 116.343 200.231 117.067 199.563 118.515C198.895 119.907 198.561 122.72 198.561 126.952Z" fill="white"/>
<path d="M254.317 118.014C252.256 118.014 250.446 119.351 248.887 122.024C247.328 124.697 246.548 127.871 246.548 131.547V153.934H252.479V155.437H226.416V153.934H231.011V117.179H226.416V115.675H246.548V123.694C247.272 120.854 248.664 118.682 250.725 117.179C252.785 115.619 255.124 114.84 257.742 114.84C260.359 114.84 262.475 115.591 264.09 117.095C265.761 118.543 266.596 120.631 266.596 123.36C266.596 126.033 265.984 128.094 264.759 129.542C263.534 130.99 261.64 131.714 259.078 131.714C256.572 131.714 254.707 130.878 253.482 129.208C252.312 127.537 252.173 125.226 253.064 122.274H256.071C257.463 119.434 256.879 118.014 254.317 118.014Z" fill="white"/>
<path d="M286.6 135.807H289.023V129.375C289.023 124.084 288.717 120.548 288.104 118.766C287.547 116.928 286.433 116.009 284.763 116.009C283.76 116.009 282.841 116.288 282.006 116.844C281.226 117.346 280.837 118.07 280.837 119.016C280.837 119.907 281.004 120.826 281.338 121.773H283.426C283.872 122.943 284.094 124.363 284.094 126.033C284.094 127.648 283.398 129.068 282.006 130.294C280.614 131.463 278.86 132.048 276.743 132.048C271.954 132.048 269.559 129.737 269.559 125.114C269.559 118.265 275.379 114.84 287.018 114.84C293.645 114.84 298.212 115.981 300.718 118.265C303.28 120.492 304.56 124.613 304.56 130.628V147.585C304.56 150.481 305.368 151.929 306.983 151.929C308.876 151.929 309.99 149.061 310.324 143.325L311.577 143.408C311.355 148.309 310.436 151.678 308.821 153.516C307.206 155.354 304.56 156.273 300.885 156.273C294.202 156.273 290.359 154.212 289.357 150.091C288.633 152.207 287.547 153.767 286.099 154.769C284.651 155.772 282.535 156.273 279.751 156.273C271.509 156.273 267.387 152.904 267.387 146.165C267.387 142.211 268.947 139.51 272.065 138.062C275.24 136.559 280.085 135.807 286.6 135.807ZM283.259 146.082C283.259 148.977 283.398 150.843 283.677 151.678C284.011 152.514 284.596 152.931 285.431 152.931C286.322 152.931 287.129 152.235 287.853 150.843C288.633 149.395 289.023 147.418 289.023 144.912V137.143H288.438C284.985 137.143 283.259 139.677 283.259 144.745V146.082Z" fill="white"/>
<path d="M324.678 109.911C321.726 109.911 319.61 109.159 318.329 107.656C317.104 106.152 316.492 104.286 316.492 102.059C316.492 99.8312 317.16 97.9935 318.496 96.5455C319.889 95.0976 321.977 94.3736 324.761 94.3736C327.546 94.3736 329.662 95.0419 331.11 96.3785C332.558 97.6593 333.282 99.5249 333.282 101.975C333.282 104.37 332.586 106.291 331.194 107.739C329.801 109.187 327.629 109.911 324.678 109.911ZM312.064 115.675H332.53V153.934H337.208V155.437H312.398V153.934H316.993V117.179H312.064V115.675Z" fill="white"/>
<path d="M339.078 115.675H359.21V123.36C360.101 120.798 361.465 118.738 363.303 117.179C365.141 115.619 367.925 114.84 371.656 114.84C380.288 114.84 384.604 119.49 384.604 128.79V153.934H389.282V155.437H365.642V153.934H369.067V126.785C369.067 123.444 368.844 121.3 368.398 120.353C367.953 119.351 367.146 118.849 365.976 118.849C364.194 118.849 362.607 120.019 361.215 122.358C359.878 124.697 359.21 127.537 359.21 130.878V153.934H362.802V155.437H339.078V153.934H343.672V117.179H339.078V115.675Z" fill="white"/>
<path d="M412.355 156.273C405.171 156.273 399.769 154.435 396.15 150.76C392.585 147.028 390.803 141.877 390.803 135.306C390.803 128.679 392.808 123.611 396.818 120.102C400.883 116.594 406.035 114.84 412.272 114.84C424.913 114.84 430.984 121.188 430.482 133.886H406.926V137.143C406.926 142.601 407.622 146.722 409.014 149.507C410.406 152.291 412.829 153.683 416.281 153.683C422.741 153.683 426.974 150.23 428.979 143.325L430.482 143.576C429.424 147.585 427.503 150.704 424.718 152.931C421.99 155.159 417.869 156.273 412.355 156.273ZM407.009 132.215H415.613V128.122C415.613 123.611 415.335 120.548 414.778 118.933C414.277 117.262 413.219 116.427 411.604 116.427C410.044 116.427 408.875 117.318 408.095 119.1C407.371 120.826 407.009 123.834 407.009 128.122V132.215Z" fill="white"/>
<path d="M233.455 190.877V215.311C233.455 222.161 232.264 227.382 229.884 230.974C227.545 234.566 223.702 236.362 218.356 236.362C214.889 236.362 212.362 235.673 210.775 234.294C209.146 232.916 208.332 231.308 208.332 229.47C208.332 227.632 208.875 226.212 209.961 225.21C211.046 224.249 212.404 223.769 214.033 223.769C215.662 223.769 216.894 224.207 217.729 225.084C218.523 226.003 218.92 227.006 218.92 228.092C218.92 229.178 218.794 230.222 218.544 231.224H216.163C215.495 232.352 215.411 233.313 215.912 234.106C216.372 234.9 217.228 235.297 218.481 235.297C219.776 235.297 220.653 234.566 221.112 233.104C221.572 231.684 221.802 228.718 221.802 224.207V192.005H217.729V190.877H233.455ZM227.503 186.554C225.289 186.554 223.702 185.99 222.741 184.863C221.822 183.735 221.363 182.336 221.363 180.665C221.363 178.994 221.864 177.616 222.867 176.53C223.911 175.444 225.477 174.901 227.565 174.901C229.654 174.901 231.241 175.402 232.327 176.405C233.413 177.365 233.956 178.765 233.956 180.602C233.956 182.398 233.434 183.839 232.39 184.925C231.345 186.011 229.716 186.554 227.503 186.554Z" fill="#EF8354"/>
<path d="M258.048 208.357V203.031C258.048 198.98 257.818 196.035 257.359 194.198C256.941 192.318 255.939 191.378 254.352 191.378C253.433 191.378 252.681 191.65 252.096 192.193C251.553 192.694 251.156 193.55 250.906 194.761C250.53 196.641 250.342 199.502 250.342 203.345V208.231C250.342 212.784 250.467 215.52 250.718 216.439C251.01 217.358 251.303 218.109 251.595 218.694C252.054 219.696 252.952 220.198 254.289 220.198C255.918 220.198 256.983 219.258 257.484 217.378C257.86 216.042 258.048 213.035 258.048 208.357ZM254.164 221.325C248.943 221.325 244.996 219.989 242.323 217.316C239.65 214.643 238.313 210.821 238.313 205.851C238.313 200.839 239.733 196.996 242.573 194.323C245.455 191.608 249.486 190.251 254.665 190.251C259.844 190.251 263.708 191.504 266.255 194.01C268.803 196.474 270.077 200.254 270.077 205.349C270.077 216 264.773 221.325 254.164 221.325Z" fill="#EF8354"/>
<path d="M308.48 220.699H294.196L293.507 216.125C292.838 217.796 291.836 219.091 290.499 220.01C289.205 220.887 287.262 221.325 284.673 221.325C278.199 221.325 274.962 217.838 274.962 210.863V192.005H271.453V190.877H286.615V212.366C286.615 214.872 286.782 216.522 287.116 217.316C287.492 218.109 288.202 218.506 289.246 218.506C290.332 218.506 291.293 217.859 292.128 216.564C292.964 215.269 293.381 213.473 293.381 211.176V192.005H290.499V190.877H305.034V219.571H308.48V220.699Z" fill="#EF8354"/>
<path d="M330.688 192.631C329.143 192.631 327.785 193.634 326.616 195.639C325.446 197.643 324.861 200.024 324.861 202.781V219.571H329.31V220.699H309.763V219.571H313.208V192.005H309.763V190.877H324.861V196.892C325.404 194.761 326.449 193.132 327.994 192.005C329.539 190.835 331.294 190.251 333.257 190.251C335.22 190.251 336.807 190.814 338.018 191.942C339.271 193.028 339.898 194.594 339.898 196.641C339.898 198.646 339.438 200.191 338.519 201.277C337.6 202.363 336.18 202.906 334.259 202.906C332.38 202.906 330.98 202.28 330.061 201.027C329.184 199.773 329.08 198.04 329.748 195.826H332.004C333.048 193.696 332.609 192.631 330.688 192.631Z" fill="#EF8354"/>
<path d="M340.907 190.877H356.006V196.641C356.675 194.72 357.698 193.174 359.076 192.005C360.455 190.835 362.543 190.251 365.341 190.251C371.815 190.251 375.052 193.738 375.052 200.713V219.571H378.561V220.699H360.83V219.571H363.399V199.21C363.399 196.704 363.232 195.096 362.898 194.385C362.564 193.634 361.958 193.258 361.081 193.258C359.745 193.258 358.554 194.135 357.51 195.889C356.508 197.643 356.006 199.773 356.006 202.28V219.571H358.7V220.699H340.907V219.571H344.353V192.005H340.907V190.877Z" fill="#EF8354"/>
<path d="M394.425 205.976H396.241V201.152C396.241 197.184 396.012 194.532 395.552 193.195C395.135 191.817 394.299 191.128 393.046 191.128C392.294 191.128 391.605 191.336 390.979 191.754C390.394 192.13 390.102 192.673 390.102 193.383C390.102 194.051 390.227 194.741 390.478 195.451H392.044C392.378 196.328 392.545 197.393 392.545 198.646C392.545 199.857 392.023 200.922 390.979 201.841C389.935 202.718 388.619 203.157 387.032 203.157C383.44 203.157 381.644 201.423 381.644 197.957C381.644 192.819 386.008 190.251 394.738 190.251C399.708 190.251 403.133 191.107 405.013 192.819C406.934 194.49 407.895 197.581 407.895 202.092V214.81C407.895 216.982 408.5 218.068 409.711 218.068C411.132 218.068 411.967 215.917 412.217 211.615L413.157 211.677C412.99 215.353 412.301 217.88 411.09 219.258C409.879 220.636 407.895 221.325 405.138 221.325C400.126 221.325 397.244 219.78 396.492 216.689C395.949 218.276 395.135 219.446 394.049 220.198C392.963 220.95 391.376 221.325 389.287 221.325C383.106 221.325 380.015 218.799 380.015 213.745C380.015 210.779 381.184 208.753 383.523 207.668C385.904 206.54 389.538 205.976 394.425 205.976ZM391.919 213.682C391.919 215.854 392.023 217.253 392.232 217.88C392.482 218.506 392.921 218.819 393.547 218.819C394.216 218.819 394.821 218.297 395.364 217.253C395.949 216.167 396.241 214.684 396.241 212.805V206.978H395.803C393.213 206.978 391.919 208.879 391.919 212.68V213.682Z" fill="#EF8354"/>
<path d="M413.522 173.711H428.872V219.571H432.38V220.699H413.773V219.571H417.219V174.838H413.522V173.711Z" fill="#EF8354"/>
</svg>
