<svg width="163" height="130" viewBox="0 0 163 130" fill="none" xmlns="http://www.w3.org/2000/svg">
<path d="M163 58.5C163 90.8087 136.809 117 104.5 117C72.1913 117 46 90.8087 46 58.5C46 26.1913 72.1913 0 104.5 0C136.809 0 163 26.1913 163 58.5Z" fill="#B9F7D2"/>
<path d="M4.28 67.572H3.78V68.072V70.376V70.876H4.28H10.82V126.196H4.28H3.78V126.696V129V129.5H4.28H39.736H40.236V129V126.696V126.196H39.736H35.628V91.368C35.628 86.3956 36.5548 82.1704 38.386 78.6738C40.3279 75.0441 42.3751 73.436 44.472 73.436C45.2182 73.436 45.7648 73.6559 46.1664 74.0575C46.3652 74.2563 46.577 74.6183 46.7745 75.2006C46.9693 75.775 47.1371 76.5241 47.2733 77.4563C47.5455 79.3203 47.684 81.8635 47.684 85.096V126.196H43.704H43.204V126.696V129V129.5H43.704H76.6H77.1V129V126.696V126.196H76.6H72.492V90.6C72.492 85.5379 73.4204 81.4055 75.2435 78.1737C77.0842 74.9106 79.1272 73.436 81.336 73.436C82.0822 73.436 82.6288 73.6559 83.0304 74.0575C83.2292 74.2563 83.441 74.6183 83.6385 75.2006C83.8333 75.775 84.0011 76.5241 84.1373 77.4563C84.4095 79.3203 84.548 81.8635 84.548 85.096V126.196H80.568H80.068V126.696V129V129.5H80.568H116.024H116.524V129V126.696V126.196H116.024H109.356V88.168C109.356 80.9802 107.776 75.4959 104.527 71.8056C101.268 68.1032 96.4068 66.292 90.04 66.292C85.1796 66.292 81.1118 67.4648 77.872 69.8451C75.0037 71.9524 72.8195 74.9803 71.3032 78.8975C70.1799 74.9935 68.2913 71.9663 65.6135 69.8553C62.5796 67.4636 58.5882 66.292 53.688 66.292C48.8336 66.292 44.7897 67.3978 41.5923 69.647C39.039 71.4431 37.0544 73.9481 35.628 77.1398V68.072V67.572H35.128H4.28Z" fill="#EF8354" stroke="#EF8354"/>
<path d="M1.28 65.572H0.779999V66.072V68.376V68.876H1.28H7.82V124.196H1.28H0.779999V124.696V127V127.5H1.28H36.736H37.236V127V124.696V124.196H36.736H32.628V89.368C32.628 84.3956 33.5548 80.1704 35.386 76.6738C37.3279 73.0441 39.3751 71.436 41.472 71.436C42.2182 71.436 42.7648 71.6559 43.1664 72.0575C43.3652 72.2563 43.577 72.6183 43.7745 73.2006C43.9693 73.775 44.1371 74.5241 44.2733 75.4563C44.5455 77.3203 44.684 79.8635 44.684 83.096V124.196H40.704H40.204V124.696V127V127.5H40.704H73.6H74.1V127V124.696V124.196H73.6H69.492V88.6C69.492 83.5379 70.4204 79.4055 72.2435 76.1737C74.0842 72.9106 76.1272 71.436 78.336 71.436C79.0822 71.436 79.6288 71.6559 80.0304 72.0575C80.2292 72.2563 80.441 72.6183 80.6385 73.2006C80.8333 73.775 81.0011 74.5241 81.1373 75.4563C81.4095 77.3203 81.548 79.8635 81.548 83.096V124.196H77.568H77.068V124.696V127V127.5H77.568H113.024H113.524V127V124.696V124.196H113.024H106.356V86.168C106.356 78.9802 104.776 73.4959 101.527 69.8056C98.2683 66.1032 93.4068 64.292 87.04 64.292C82.1796 64.292 78.1118 65.4648 74.872 67.8451C72.0037 69.9524 69.8195 72.9803 68.3032 76.8975C67.1799 72.9935 65.2913 69.9663 62.6135 67.8553C59.5796 65.4636 55.5882 64.292 50.688 64.292C45.8336 64.292 41.7897 65.3978 38.5923 67.647C36.039 69.4431 34.0544 71.9481 32.628 75.1398V66.072V65.572H32.128H1.28Z" fill="white" stroke="white"/>
</svg>
