<svg width="26" height="48" viewBox="0 0 26 48" fill="none" xmlns="http://www.w3.org/2000/svg">
<path fill-rule="evenodd" clip-rule="evenodd" d="M9.13302 2.36327C10.3261 1.17024 11.9441 0.5 13.6313 0.5C15.3186 0.5 16.9366 1.17024 18.1297 2.36327C19.3227 3.5563 19.993 5.1744 19.993 6.8616C19.993 8.54881 19.3227 10.1669 18.1297 11.3599C16.9366 12.553 15.3186 13.2232 13.6313 13.2232C11.9441 13.2232 10.3261 12.553 9.13302 11.3599C7.93999 10.1669 7.26975 8.54881 7.26975 6.8616C7.26975 5.1744 7.93999 3.5563 9.13302 2.36327ZM13.6313 3.5C12.7398 3.5 11.8848 3.85417 11.2543 4.48459C10.6239 5.11501 10.2697 5.97005 10.2697 6.8616C10.2697 7.75316 10.6239 8.60819 11.2543 9.23862C11.8848 9.86904 12.7398 10.2232 13.6313 10.2232C14.5229 10.2232 15.3779 9.86904 16.0084 9.23862C16.6388 8.60819 16.993 7.75316 16.993 6.8616C16.993 5.97005 16.6388 5.11501 16.0084 4.48459C15.3779 3.85417 14.5229 3.5 13.6313 3.5ZM12.2397 15.3935C10.4708 15.3956 7.55018 15.5667 5.04323 17.1713C2.39284 18.8677 0.499966 21.9634 0.499966 27.1661C0.499966 27.9945 1.17154 28.6661 1.99997 28.6661C2.82839 28.6661 3.49997 27.9945 3.49997 27.1661C3.49997 22.7817 5.03088 20.7411 6.66052 19.698C7.78702 18.977 9.09324 18.6443 10.323 18.4984L7.39227 30.2276C7.28056 30.6746 7.38056 31.1483 7.66347 31.512L19.6473 46.9209C20.1559 47.5748 21.0983 47.6927 21.7523 47.1841C22.4062 46.6755 22.524 45.7331 22.0154 45.0792L10.4798 30.2466L13.4414 18.3935H14.525C14.9611 19.876 15.7279 21.7098 16.894 23.4288C18.4069 25.6592 20.6798 27.8188 23.8929 28.6214C24.6966 28.8221 25.5109 28.3333 25.7117 27.5296C25.9124 26.7259 25.4236 25.9116 24.6199 25.7108C22.3539 25.1448 20.6318 23.595 19.3767 21.7447C18.1178 19.8888 17.4171 17.8539 17.1659 16.5991C17.0256 15.8981 16.41 15.3935 15.6951 15.3935H12.2973C12.278 15.3932 12.2588 15.3932 12.2397 15.3935ZM8.03652 37.9527C8.69915 38.4499 8.83325 39.3901 8.33604 40.0527L3.19976 46.8979C2.70255 47.5605 1.76232 47.6946 1.09969 47.1974C0.437064 46.7002 0.302964 45.7599 0.800171 45.0973L5.93645 38.2522C6.43366 37.5896 7.37389 37.4555 8.03652 37.9527Z" fill="white"/>
</svg>
