<svg width="48" height="34" viewBox="0 0 48 34" fill="none" xmlns="http://www.w3.org/2000/svg">
<path d="M24 0.75C13.1667 0.75 3.91501 7.48833 0.166672 17C3.91501 26.5117 13.1667 33.25 24 33.25C34.8333 33.25 44.085 26.5117 47.8333 17C44.085 7.48833 34.8333 0.75 24 0.75ZM24 27.8333C18.02 27.8333 13.1667 22.98 13.1667 17C13.1667 11.02 18.02 6.16667 24 6.16667C29.98 6.16667 34.8333 11.02 34.8333 17C34.8333 22.98 29.98 27.8333 24 27.8333ZM24 10.5C20.4033 10.5 17.5 13.4033 17.5 17C17.5 20.5967 20.4033 23.5 24 23.5C27.5967 23.5 30.5 20.5967 30.5 17C30.5 13.4033 27.5967 10.5 24 10.5Z" fill="white"/>
</svg>
