<svg width="34" height="44" viewBox="0 0 34 44" fill="none" xmlns="http://www.w3.org/2000/svg">
<path d="M24.414 1.77102C26.922 3.03382 29.1924 5.18322 31.2912 8.26982C32.6189 10.5023 33.3718 13.0293 33.4824 15.6244C33.6166 18.3194 32.9698 21.1618 31.5618 24.1472L31.4364 24.3672L18.1858 43.3796C18.0557 43.5711 17.8807 43.7278 17.6762 43.8362C17.4716 43.9445 17.2436 44.0011 17.0121 44.0011C16.7806 44.0011 16.5526 43.9445 16.3481 43.8362C16.1435 43.7278 15.9685 43.5711 15.8384 43.3796L2.9508 24.8996C1.95535 23.3358 1.23229 21.6144 0.812402 19.8088C-0.0389975 16.0116 0.812403 10.7756 3.822 6.66602C6.7612 2.65322 10.862 0.693017 15.0068 0.151817C18.1704 -0.263983 21.1844 0.143017 24.4162 1.77102H24.414ZM15.3698 3.11302C11.929 3.56182 8.53 5.18762 6.1298 8.46562C3.6658 11.8294 2.9618 16.159 3.6284 19.1356C3.9364 20.5172 4.5216 21.8988 5.34 23.2188L17.011 39.952L29.0142 22.7282C30.1824 20.2158 30.7016 17.9014 30.5938 15.7784C30.4838 13.6004 29.8986 11.6292 28.8778 9.91102C27.0914 7.28862 25.1774 5.47802 23.1468 4.45502C20.4562 3.09762 18.0032 2.76762 15.3698 3.11302ZM17.0682 8.47002C21.378 8.47002 24.887 11.9878 24.887 16.346C24.887 20.7086 21.378 24.2264 17.0682 24.2264C12.7606 24.2264 9.2494 20.7086 9.2494 16.3482C9.2494 11.9878 12.7606 8.47222 17.0682 8.47222V8.47002ZM17.0682 11.4554C14.3402 11.4554 12.1402 13.6554 12.1402 16.3482C12.1402 19.0388 14.3402 21.241 17.0682 21.241C19.7984 21.241 21.9962 19.041 21.9962 16.3482C21.9939 15.7034 21.8646 15.0653 21.6157 14.4704C21.3668 13.8755 21.0031 13.3355 20.5455 12.8812C20.0879 12.4268 19.5453 12.0671 18.9487 11.8225C18.352 11.5778 17.713 11.4531 17.0682 11.4554Z" fill="white"/>
</svg>
