<svg width="44" height="42" viewBox="0 0 44 42" fill="none" xmlns="http://www.w3.org/2000/svg">
<path d="M22.0003 7.55727L20.0286 5.53052C15.4003 0.773022 6.91384 2.41477 3.85034 8.39602C2.52484 10.9865 2.14534 14.6385 4.14734 19.2503H1.18284C-4.66916 3.58352 12.6366 -5.03223 21.5163 3.14352C21.6813 3.29477 21.8436 3.45152 22.0003 3.61377C22.1555 3.45167 22.317 3.29572 22.4843 3.14627C31.3668 -5.03223 48.6698 3.58352 42.8178 19.2503H39.8533C41.8553 14.6385 41.4758 10.9865 40.1503 8.39602C37.0868 2.41477 28.6003 0.770272 23.9721 5.52777L22.0003 7.55727ZM6.08334 27.5003H9.69959C12.6311 30.7535 16.6378 34.2598 22.0003 37.9365C27.3601 34.2598 31.3696 30.7535 34.3011 27.5003H37.9173C34.4386 31.8068 29.2823 36.4378 22.0003 41.2503C14.7183 36.4378 9.56209 31.8068 6.08334 27.5003Z" fill="white"/>
<path d="M28.776 9.1135C28.6693 8.84726 28.4821 8.62105 28.2404 8.46653C27.9988 8.31201 27.7149 8.23692 27.4284 8.25177C27.142 8.26662 26.8674 8.37067 26.643 8.54935C26.4187 8.72804 26.2558 8.9724 26.1772 9.24825L21.7827 24.629L17.776 14.6135C17.6827 14.3812 17.5277 14.1787 17.3278 14.028C17.1278 13.8773 16.8905 13.784 16.6415 13.7583C16.3925 13.7325 16.1411 13.7752 15.9146 13.8819C15.688 13.9885 15.4949 14.1549 15.356 14.3632L10.263 22H1.375C1.01033 22 0.660591 22.1449 0.402728 22.4027C0.144866 22.6606 1.47449e-07 23.0103 1.47449e-07 23.375C1.47449e-07 23.7397 0.144866 24.0894 0.402728 24.3473C0.660591 24.6051 1.01033 24.75 1.375 24.75H11C11.2264 24.7499 11.4493 24.6938 11.6489 24.5869C11.8485 24.4799 12.0186 24.3253 12.144 24.1368L16.1947 18.062L20.724 29.3865C20.8307 29.6527 21.0179 29.879 21.2596 30.0335C21.5012 30.188 21.7851 30.2631 22.0716 30.2482C22.358 30.2334 22.6326 30.1293 22.857 29.9506C23.0813 29.772 23.2442 29.5276 23.3228 29.2517L27.7173 13.871L31.724 23.8865C31.8262 24.1414 32.0023 24.3599 32.2297 24.5138C32.4571 24.6677 32.7254 24.7499 33 24.75H42.625C42.9897 24.75 43.3394 24.6051 43.5973 24.3473C43.8551 24.0894 44 23.7397 44 23.375C44 23.0103 43.8551 22.6606 43.5973 22.4027C43.3394 22.1449 42.9897 22 42.625 22H33.9295L28.776 9.1135Z" fill="white"/>
</svg>
