<svg width="42" height="42" viewBox="0 0 42 42" fill="none" xmlns="http://www.w3.org/2000/svg">
<path fill-rule="evenodd" clip-rule="evenodd" d="M37.2224 1.34714C37.4449 2.00067 37.0954 2.71081 36.4419 2.93329L33.0475 4.08882L32.226 7.37497H38.7715C38.7822 7.37484 38.7929 7.37484 38.8036 7.37497H40.25C40.9404 7.37497 41.5 7.93462 41.5 8.62497C41.5 9.31533 40.9404 9.87497 40.25 9.87497H39.9139L36.9591 37.8195C36.8791 38.818 36.4273 39.7504 35.6927 40.4321C34.953 41.1185 33.9811 41.5 32.972 41.5H10.5156C8.62673 41.5 7.06954 40.7203 6.00704 39.436C5.21598 38.4798 4.73083 37.2856 4.54274 36H4.5C2.0453 36 0.5 33.6265 0.5 31.3125C0.5 30.1952 0.860217 29.0641 1.50908 28.193C1.49603 28.1804 1.48307 28.1676 1.47021 28.1548C0.848995 27.5336 0.5 26.691 0.5 25.8125C0.5 24.9339 0.848995 24.0914 1.47021 23.4702C1.9575 22.9829 2.58097 22.6631 3.25117 22.5479C3.29255 19.8747 4.4264 17.7618 6.25791 16.34C8.08815 14.9193 10.529 14.25 13.0938 14.25H19.1067L18.5979 9.87497H18.25C17.5596 9.87497 17 9.31533 17 8.62497C17 7.93462 17.5596 7.37497 18.25 7.37497H19.6953C19.7068 7.37482 19.7183 7.37482 19.7297 7.37497H29.649L30.7873 2.8218C30.8903 2.40993 31.1953 2.07848 31.5972 1.94166L35.6362 0.566661C36.2898 0.344185 36.9999 0.693619 37.2224 1.34714ZM30.5989 9.87497H21.1147L21.5919 13.978C21.6104 14.1364 21.5983 14.2914 21.5604 14.437C23.2676 14.7265 24.8422 15.3559 26.119 16.3509C27.9448 17.7738 29.0771 19.884 29.1235 22.5478C29.7938 22.663 30.4174 22.9828 30.9048 23.4702C31.526 24.0914 31.875 24.9339 31.875 25.8125C31.875 26.691 31.526 27.5336 30.9048 28.1548C30.8919 28.1676 30.879 28.1804 30.8659 28.193C31.5148 29.0641 31.875 30.1952 31.875 31.3125C31.875 33.6265 30.3297 36 27.875 36H27.8323C27.6718 37.0969 27.295 38.1272 26.6966 39H32.9719C33.3504 39 33.7148 38.8569 33.9922 38.5995C34.2696 38.3421 34.4394 37.9894 34.4677 37.612L34.4691 37.5929L37.3999 9.87497H30.653C30.635 9.87537 30.617 9.87537 30.5989 9.87497ZM27.875 33.5C28.4573 33.5 29.375 32.7951 29.375 31.3125C29.375 29.8312 28.4591 29.1263 27.8767 29.125C27.8761 29.125 27.8756 29.125 27.875 29.125L14.6428 29.125L12.5026 31.2652C12.3546 31.4133 12.1788 31.5309 11.9853 31.6111C11.7918 31.6913 11.5844 31.7326 11.375 31.7326C11.1656 31.7326 10.9582 31.6913 10.7647 31.6111C10.5712 31.5309 10.3954 31.4133 10.2474 31.2652L8.10723 29.125L4.5 29.125C4.49945 29.125 4.49889 29.125 4.49834 29.125C3.91593 29.1263 3 29.8312 3 31.3125C3 32.7951 3.91767 33.5 4.5 33.5H27.875ZM7.08122 36H25.2938C25.1354 36.7371 24.8375 37.364 24.4417 37.8424C23.8574 38.5486 23.0084 39 21.8594 39H10.5156C9.36663 39 8.51757 38.5486 7.93329 37.8424C7.53752 37.364 7.23962 36.7371 7.08122 36ZM4.50221 26.625H8.34055C8.85372 26.6252 9.34642 26.829 9.70949 27.1917L11.375 28.8572L13.04 27.1922C13.4031 26.8295 13.8957 26.6252 14.4089 26.625H27.8728C27.8735 26.625 27.8743 26.625 27.875 26.625C27.8763 26.625 27.8775 26.625 27.8788 26.625H28.5625C28.778 26.625 28.9846 26.5394 29.137 26.387C29.2894 26.2346 29.375 26.028 29.375 25.8125C29.375 25.597 29.2894 25.3903 29.137 25.238C28.9846 25.0856 28.778 25 28.5625 25H3.8125C3.59701 25 3.39035 25.0856 3.23798 25.238C3.0856 25.3903 3 25.597 3 25.8125C3 26.028 3.0856 26.2346 3.23798 26.387C3.39035 26.5394 3.59701 26.625 3.8125 26.625H4.49619C4.49746 26.625 4.49873 26.625 4.5 26.625C4.50074 26.625 4.50147 26.625 4.50221 26.625ZM26.6217 22.5C26.5655 20.6304 25.7863 19.2612 24.5822 18.3228C23.2967 17.321 21.441 16.75 19.2812 16.75H13.0938C10.9319 16.75 9.07591 17.3173 7.79092 18.3148C6.58415 19.2516 5.80426 20.6215 5.75272 22.5H26.6217Z" fill="white"/>
</svg>
