<svg width="24" height="42" viewBox="0 0 24 42" fill="none" xmlns="http://www.w3.org/2000/svg">
<path d="M8.96667 28.6667C8.96667 25.7417 9.22884 23.6378 9.75317 22.3552C10.2761 21.0739 11.3861 19.675 13.0833 18.1583C14.5639 16.8583 15.692 15.7295 16.4677 14.7718C17.2448 13.8156 17.6333 12.7236 17.6333 11.4958C17.6333 10.0153 17.1372 8.7875 16.1448 7.8125C15.1511 6.8375 13.7694 6.35 12 6.35C10.1583 6.35 8.75867 6.90972 7.801 8.02917C6.84478 9.14861 6.16806 10.2861 5.77083 11.4417L0.191668 9.05833C0.950001 6.74722 2.34028 4.74306 4.3625 3.04583C6.38472 1.34861 8.93056 0.5 12 0.5C15.7917 0.5 18.708 1.55661 20.749 3.66983C22.7886 5.78161 23.8083 8.31806 23.8083 11.2792C23.8083 13.0847 23.4205 14.6288 22.6448 15.9115C21.8677 17.1927 20.6486 18.6458 18.9875 20.2708C17.2181 21.9681 16.1441 23.2587 15.7657 24.1427C15.3858 25.0281 15.1958 26.5361 15.1958 28.6667H8.96667ZM12 41.6667C10.8083 41.6667 9.78856 41.2427 8.94067 40.3948C8.09133 39.5455 7.66667 38.525 7.66667 37.3333C7.66667 36.1417 8.09133 35.1212 8.94067 34.2718C9.78856 33.4239 10.8083 33 12 33C13.1917 33 14.2122 33.4239 15.0615 34.2718C15.9094 35.1212 16.3333 36.1417 16.3333 37.3333C16.3333 38.525 15.9094 39.5455 15.0615 40.3948C14.2122 41.2427 13.1917 41.6667 12 41.6667Z" fill="white"/>
</svg>
