<svg width="47" height="42" viewBox="0 0 47 42" fill="none" xmlns="http://www.w3.org/2000/svg">
<path d="M19.0331 9.33333H16.314V20.0437L25.8306 25.6667L27.1901 23.471L19.0331 18.7049V9.33333Z" fill="white"/>
<path d="M18.2745 0C28.3519 0 36.5124 8.18845 36.5124 18.2778C36.5124 28.3671 28.3519 36.5556 18.2745 36.5556C8.17878 36.5556 0 28.3671 0 18.2778C0 8.18845 8.17878 0 18.2745 0ZM18.2562 32.9C26.3254 32.9 32.8612 26.3566 32.8612 18.2778C32.8612 10.199 26.3254 3.65556 18.2562 3.65556C10.187 3.65556 3.65124 10.199 3.65124 18.2778C3.65124 26.3566 10.187 32.9 18.2562 32.9Z" fill="white"/>
<path fill-rule="evenodd" clip-rule="evenodd" d="M38.9096 28.4556C38.3029 29.0631 38.3029 30.048 38.9096 30.6555L41.6953 33.4444H17.4793C16.6212 33.4444 15.9256 34.1409 15.9256 35C15.9256 35.8591 16.6212 36.5556 17.4793 36.5556H41.6953L38.9096 39.3445C38.3029 39.952 38.3029 40.9369 38.9096 41.5444C39.5164 42.1519 40.5001 42.1519 41.1069 41.5444L46.5449 36.0999C47.1517 35.4925 47.1517 34.5075 46.5449 33.9001L41.1069 28.4556C40.5001 27.8481 39.5164 27.8481 38.9096 28.4556Z" fill="white"/>
</svg>
