<svg width="47" height="42" viewBox="0 0 47 42" fill="none" xmlns="http://www.w3.org/2000/svg">
<path d="M27.9669 9.33333H30.686V20.0437L21.1694 25.6667L19.8099 23.471L27.9669 18.7049V9.33333Z" fill="white"/>
<path d="M28.7255 0C18.6481 0 10.4876 8.18845 10.4876 18.2778C10.4876 28.3671 18.6481 36.5556 28.7255 36.5556C38.8212 36.5556 47 28.3671 47 18.2778C47 8.18845 38.8212 0 28.7255 0ZM28.7438 32.9C20.6746 32.9 14.1388 26.3566 14.1388 18.2778C14.1388 10.199 20.6746 3.65556 28.7438 3.65556C36.813 3.65556 43.3488 10.199 43.3488 18.2778C43.3488 26.3566 36.813 32.9 28.7438 32.9Z" fill="white"/>
<path fill-rule="evenodd" clip-rule="evenodd" d="M8.09038 28.4556C8.69715 29.0631 8.69715 30.048 8.09038 30.6555L5.30473 33.4444H29.5207C30.3788 33.4444 31.0744 34.1409 31.0744 35C31.0744 35.8591 30.3788 36.5556 29.5207 36.5556H5.30473L8.09038 39.3445C8.69715 39.952 8.69715 40.9369 8.09038 41.5444C7.48362 42.1519 6.49986 42.1519 5.89309 41.5444L0.455074 36.0999C-0.151691 35.4925 -0.151691 34.5075 0.455074 33.9001L5.89309 28.4556C6.49986 27.8481 7.48362 27.8481 8.09038 28.4556Z" fill="white"/>
</svg>
